<svg xmlns="http://www.w3.org/2000/svg" viewBox="0 0 120 110" fill="none">
  <defs>
    <linearGradient id="blueLeft" x1="0" y1="0" x2="1" y2="1">
      <stop offset="0%" stop-color="#1565C0"/><stop offset="40%" stop-color="#1E88E5"/><stop offset="70%" stop-color="#42A5F5"/><stop offset="100%" stop-color="#0D47A1"/>
    </linearGradient>
    <linearGradient id="silver" x1="0" y1="0" x2="1" y2="1">
      <stop offset="0%" stop-color="#E0E8F0"/><stop offset="30%" stop-color="#B0BEC5"/><stop offset="60%" stop-color="#90A4AE"/><stop offset="100%" stop-color="#607D8B"/>
    </linearGradient>
    <linearGradient id="blueRight" x1="1" y1="0" x2="0" y2="1">
      <stop offset="0%" stop-color="#42A5F5"/><stop offset="50%" stop-color="#1976D2"/><stop offset="100%" stop-color="#0D47A1"/>
    </linearGradient>
    <linearGradient id="silverDark" x1="0" y1="0" x2="0" y2="1">
      <stop offset="0%" stop-color="#90A4AE"/><stop offset="100%" stop-color="#455A64"/>
    </linearGradient>
    <filter id="shadow" x="-20%" y="-20%" width="140%" height="140%">
      <feDropShadow dx="0" dy="4" stdDeviation="4" flood-color="#000" flood-opacity="0.3"/>
    </filter>
  </defs>
  <g filter="url(#shadow)">
    <polygon points="8,2 28,2 62,72 42,82" fill="url(#blueLeft)"/>
    <polygon points="14,2 24,2 56,66 46,72" fill="#42A5F5" opacity="0.35"/>
    <polygon points="55,2 75,2 62,30 42,30" fill="url(#silver)"/>
    <polygon points="50,30 62,30 68,72 56,72" fill="url(#silverDark)"/>
    <polygon points="75,2 112,2 80,38 62,28" fill="url(#blueRight)"/>
    <polygon points="80,2 100,2 78,28 68,22" fill="#42A5F5" opacity="0.45"/>
    <polygon points="48,68 72,68 60,106 54,100" fill="url(#silver)"/>
    <polygon points="54,76 66,76 62,106 58,100" fill="url(#blueRight)" opacity="0.6"/>
  </g>
</svg>
