<svg xmlns="http://www.w3.org/2000/svg" width="56" height="50" viewBox="0 0 56 50" fill="none">
  <defs>
    <linearGradient id="leftFace" x1="0" y1="0" x2="1" y2="1">
      <stop offset="0%" stop-color="#1e3a5f"/>
      <stop offset="100%" stop-color="#0a1628"/>
    </linearGradient>
    <linearGradient id="rightFace" x1="1" y1="0" x2="0" y2="1">
      <stop offset="0%" stop-color="#3b82f6"/>
      <stop offset="100%" stop-color="#1e40af"/>
    </linearGradient>
    <linearGradient id="topShine" x1="0" y1="0" x2="0" y2="1">
      <stop offset="0%" stop-color="#60a5fa" stop-opacity="0.8"/>
      <stop offset="100%" stop-color="#3b82f6" stop-opacity="0"/>
    </linearGradient>
    <linearGradient id="bottomFace" x1="0" y1="1" x2="0" y2="0">
      <stop offset="0%" stop-color="#0a1628"/>
      <stop offset="100%" stop-color="#1e3a5f" stop-opacity="0"/>
    </linearGradient>
  </defs>
  <path d="M4 4 L20 4 L28 22 L36 4 L52 4 L34 46 L22 46 Z" fill="url(#leftFace)" stroke="#3b82f6" stroke-width="1.5" stroke-linejoin="round"/>
  <path d="M52 4 L36 4 L28 22 L20 4 L4 4 L22 46 L34 46 Z" fill="url(#rightFace)" stroke="#60a5fa" stroke-width="1" stroke-linejoin="round" opacity="0.7"/>
  <path d="M4 4 L20 4 L28 22 L36 4 L52 4" fill="url(#topShine)" opacity="0.5"/>
  <path d="M22 46 L34 46 L28 22 Z" fill="url(#bottomFace)" opacity="0.6"/>
</svg>
